:FULLY-SPECIFIED
:FORCE-ALL-JOINTS-BE-3DOF
:DEGREES
1019
root 1.15014 15.1618 32.4435 4.86544 -3.55791 363.6
lfemur 8.48713 0.584445 5.67832
ltibia -3.73337e-14 0 0
lfoot -30.1415 -11.0539 0
ltoes -34.329 0 0
rfemur -31.6309 -15.9064 -6.047
rtibia 50.161 0 0
rfoot -22.3932 4.80627 0
rtoes -42.4612 0 0
lowerback -1.42786 -0.151376 0.274914
upperback -0.546212 -0.190451 -5.9267
thorax 0.217951 -0.102988 -6.30286
lowerneck -7.15962 0.944747 6.20894
upperneck 1.60859 0.577736 3.56428
head 1.72929 0.423338 0.090398
lclavicle 5.05008e-15 5.14946e-15 0
lhumerus -58.6931 -46.508 115.42
lradius 55.6355 0 0
lwrist 25.1834 0 0
lhand 37.213 24.8342 0
lfingers 7.12502 0 0
lthumb 60.0474 38.5641 0
rclavicle 5.05008e-15 5.14946e-15 0
rhumerus 2.85307 -23.9006 0.133199
rradius 27.6275 0 0
rwrist -10.3604 0 0
rhand -30.7561 -43.0098 0
rfingers 7.12502 0 0
rthumb -4.04765 -792.951 0
1020
root 1.15086 15.1616 32.4458 4.86167 -3.54727 363.592
lfemur 8.49606 0.573564 5.68643
ltibia -3.58191e-14 0 0
lfoot -30.1452 -11.0535 0
ltoes -34.3342 0 0
rfemur -31.6163 -15.9178 -6.04765
rtibia 50.1656 0 0
rfoot -22.3705 4.86007 0
rtoes -42.3941 0 0
lowerback -1.43988 -0.145098 0.258656
upperback -0.543005 -0.181241 -5.93527
thorax 0.229062 -0.0981124 -6.30253
lowerneck -7.15675 0.938486 6.22884
upperneck 1.61107 0.567651 3.56735
head 1.72955 0.4186 0.0876479
lclavicle 5.7837e-15 7.57274e-15 0
lhumerus -58.691 -46.5236 115.412
lradius 55.6431 0 0
lwrist 25.1921 0 0
lhand 37.2247 24.8582 0
lfingers 7.12502 0 0
lthumb 60.0574 38.5776 0
rclavicle 5.7837e-15 7.57274e-15 0
rhumerus 2.83742 -23.8938 0.143389
rradius 27.6149 0 0
rwrist -10.3209 0 0
rhand -30.7413 -42.9748 0
rfingers 7.12502 0 0
rthumb -4.03338 -792.916 0
1021
root 1.15159 15.1613 32.4482 4.85789 -3.53664 363.583
lfemur 8.505 0.562683 5.69453
ltibia -3.43046e-14 0 0
lfoot -30.149 -11.0532 0
ltoes -34.3395 0 0
rfemur -31.6016 -15.9293 -6.04831
rtibia 50.1703 0 0
rfoot -22.3477 4.91387 0
rtoes -42.3269 0 0
lowerback -1.4519 -0.138819 0.242399
upperback -0.539799 -0.172031 -5.94384
thorax 0.240173 -0.0932367 -6.30221
lowerneck -7.15388 0.932226 6.24874
upperneck 1.61355 0.557567 3.57041
head 1.72981 0.413863 0.0848979
lclavicle 6.51731e-15 9.99601e-15 0
lhumerus -58.6889 -46.5393 115.405
lradius 55.6507 0 0
lwrist 25.2009 0 0
lhand 37.2363 24.8822 0
lfingers 7.12502 0 0
lthumb 60.0674 38.5911 0
rclavicle 6.51731e-15 9.99601e-15 0
rhumerus 2.82177 -23.887 0.15358
rradius 27.6023 0 0
rwrist -10.2815 0 0
rhand -30.7265 -42.9398 0
rfingers 7.12502 0 0
rthumb -4.01911 -792.881 0
1022
root 1.15231 15.161 32.4506 4.85411 -3.52601 363.575
lfemur 8.51394 0.551801 5.70263
ltibia -3.279e-14 0 0
lfoot -30.1527 -11.0529 0
ltoes -34.3447 0 0
rfemur -31.587 -15.9408 -6.04896
rtibia 50.175 0 0
rfoot -22.3249 4.96767 0
rtoes -42.2597 0 0
lowerback -1.46393 -0.13254 0.226141
upperback -0.536593 -0.162822 -5.9524
thorax 0.251285 -0.088361 -6.30188
lowerneck -7.15101 0.925966 6.26863
upperneck 1.61603 0.547482 3.57348
head 1.73007 0.409125 0.0821479
lclavicle 7.25092e-15 1.24193e-14 0
lhumerus -58.6868 -46.5549 115.398
lradius 55.6583 0 0
lwrist 25.2097 0 0
lhand 37.248 24.9062 0
lfingers 7.12502 0 0
lthumb 60.0773 38.6046 0
rclavicle 7.25092e-15 1.24193e-14 0
rhumerus 2.80612 -23.8801 0.163771
rradius 27.5897 0 0
rwrist -10.2421 0 0
rhand -30.7117 -42.9048 0
rfingers 7.12502 0 0
rthumb -4.00483 -792.847 0
1023
root 1.15304 15.1607 32.453 4.85034 -3.51538 363.566
lfemur 8.52287 0.54092 5.71073
ltibia -3.12755e-14 0 0
lfoot -30.1565 -11.0526 0
ltoes -34.35 0 0
rfemur -31.5723 -15.9523 -6.04962
rtibia 50.1797 0 0
rfoot -22.3021 5.02147 0
rtoes -42.1925 0 0
lowerback -1.47595 -0.126261 0.209883
upperback -0.533386 -0.153612 -5.96097
thorax 0.262396 -0.0834853 -6.30156
lowerneck -7.14813 0.919705 6.28853
upperneck 1.6185 0.537398 3.57654
head 1.73034 0.404388 0.0793979
lclavicle 7.98453e-15 1.48426e-14 0
lhumerus -58.6846 -46.5706 115.391
lradius 55.666 0 0
lwrist 25.2185 0 0
lhand 37.2597 24.9302 0
lfingers 7.12502 0 0
lthumb 60.0873 38.618 0
rclavicle 7.98453e-15 1.48426e-14 0
rhumerus 2.79047 -23.8733 0.173961
rradius 27.5771 0 0
rwrist -10.2026 0 0
rhand -30.697 -42.8698 0
rfingers 7.12502 0 0
rthumb -3.99056 -792.812 0
1024
root 1.15376 15.1605 32.4554 4.84656 -3.50475 363.557
lfemur 8.53181 0.530039 5.71883
ltibia -2.97609e-14 0 0
lfoot -30.1603 -11.0523 0
ltoes -34.3553 0 0
rfemur -31.5577 -15.9638 -6.05027
rtibia 50.1844 0 0
rfoot -22.2793 5.07527 0
rtoes -42.1253 0 0
lowerback -1.48797 -0.119982 0.193626
upperback -0.53018 -0.144402 -5.96954
thorax 0.273507 -0.0786096 -6.30124
lowerneck -7.14526 0.913445 6.30843
upperneck 1.62098 0.527314 3.57961
head 1.7306 0.399651 0.0766479
lclavicle 8.71814e-15 1.72658e-14 0
lhumerus -58.6825 -46.5863 115.384
lradius 55.6736 0 0
lwrist 25.2273 0 0
lhand 37.2713 24.9542 0
lfingers 7.12502 0 0
lthumb 60.0973 38.6315 0
rclavicle 8.71814e-15 1.72658e-14 0
rhumerus 2.77482 -23.8665 0.184152
rradius 27.5645 0 0
rwrist -10.1632 0 0
rhand -30.6822 -42.8348 0
rfingers 7.12502 0 0
rthumb -3.97629 -792.777 0
